<svg width="40" height="40" viewBox="0 0 40 40" fill="none" xmlns="http://www.w3.org/2000/svg">
<g clip-path="url(#clip0_15_52)">
<rect width="40" height="40" rx="20" fill="#ADE7FF"/>
<path d="M20.2927 23C20.122 22.9756 19.9024 22.9756 19.7073 23C15.4146 22.8534 12 19.3359 12 15.0122C12 10.5908 15.561 7 20 7C24.4146 7 28 10.5908 28 15.0122C27.9756 19.3359 24.5854 22.8534 20.2927 23Z" fill="#1481FE"/>
<path d="M35 36.2155C31.0386 40.4364 25.7864 43 20 43C14.2136 43 8.96142 40.4364 5 36.2155C5.22255 33.7814 6.55786 31.3991 8.93917 29.5347C15.0371 24.8218 25.0074 24.8218 31.0608 29.5347C33.4421 31.3991 34.7774 33.7814 35 36.2155Z" fill="#1481FE"/>
</g>
<defs>
<clipPath id="clip0_15_52">
<rect width="40" height="40" rx="20" fill="white"/>
</clipPath>
</defs>
</svg>
